{"title":"DILDARIYAAN  (2015) 1CD DvDrip XviD MP3 -DDR","uid":14790259,"size":759574994,"categoryP":"video","categoryS":"movies","magnet":"?xt=urn:btih:3c6cb738815f24b519a30972630a69f5becd14ea&amp;dn=DILDARIYAAN++%282015%29+1CD+DvDrip+XviD+MP3+-DDR&amp;tr=udp%3A%2F%2Ftracker.leechers-paradise.org%3A6969&amp;tr=udp%3A%2F%2Fzer0day.ch%3A1337&amp;tr=udp%3A%2F%2Fopen.demonii.com%3A1337&amp;tr=udp%3A%2F%2Ftracker.coppersurfer.tk%3A6969&amp;tr=udp%3A%2F%2Fexodus.desync.com%3A6969","seeders":0,"leechers":1,"uploader":"SaM","files":2,"time":1465053934,"description":"- BollywooD MoviE -\r\n**- DILDARIYAAN -**\r\n- 2015 -\r\n** DvDRip / XviD / MP3 2.0 **\r\nNo subtitle(s)\r\n\r\n ~* SCREENSHOTS *~\r\n \nhttp://extraimago.com/image/aeEI \nhttp://extraimago.com/image/ae10 \nhttp://extraimago.com/image/ae1z \nhttp://extraimago.com/image/ae1U \nhttp://extraimago.com/image/ae1M \nhttp://extraimago.com/image/ae19 \nhttp://extraimago.com/image/ae13 \nhttp://extraimago.com/image/ae1b \nhttp://extraimago.com/image/ae1h \nhttp://extraimago.com/image/ae1d \nhttp://extraimago.com/image/ae1I \nhttp://extraimago.com/image/ae1l \nhttp://extraimago.com/image/ae1i\r\n\r\n[ Specs ]\r\nGeneral\r\nSource = DVD9 @ DDR\r\n\r\nFormat : AVI\r\nFile size : 724 MiB\r\nDuration : 1h 55mn\r\nOverall bit rate mode : Variable\r\nOverall bit rate : 875 Kbps\r\n\r\nVideo\r\nFormat : MPEG-4 Visual\r\nFormat profile : Advanced   \r\nFormat settings, Matrix : Custom\r\nCodec ID : XVID\r\nDuration : 1h 55mn\r\nBit rate : 787 Kbps\r\nWidth : 640 pixels\r\nHeight : 272 pixels\r\nDisplay aspect ratio : 2.35:1\r\nFrame rate : 23.976 (24000/1001) fps\r\nColor space : YUV\r\nChroma subsampling : 4:2:0\r\nBit depth : 8 bits\r\nScan type : Progressive\r\nCompression mode : Lossy\r\nBits/(Pixel*Frame) : 0.188\r\nStream size : 651 MiB (90%)\r\n\r\nAudio\r\nID : 1\r\nFormat : MPEG Audio\r\nFormat version : Version 1\r\nFormat profile : Layer 3\r\nMode : Joint stereo\r\nMode extension : MS Stereo\r\nCodec ID : 55\r\nCodec ID/Hint : MP3\r\nDuration : 1h 55mn\r\nBit rate mode : Variable\r\nBit rate : 80.0 Kbps\r\nChannel(s) : 2 channels\r\nSampling rate : 32.0 KHz\r\nCompression mode : Lossy\r\nStream size : 64.8 MiB (9%)\r\nChapters: No\r\nSample: YES - included\r\n\r\nA DDR Exclusive Release...!","torrent":{"xt":"urn:btih:3c6cb738815f24b519a30972630a69f5becd14ea","amp;dn":"DILDARIYAAN++%282015%29+1CD+DvDrip+XviD+MP3+-DDR","amp;tr":["udp%3A%2F%2Ftracker.leechers-paradise.org%3A6969","udp%3A%2F%2Fzer0day.ch%3A1337","udp%3A%2F%2Fopen.demonii.com%3A1337","udp%3A%2F%2Ftracker.coppersurfer.tk%3A6969","udp%3A%2F%2Fexodus.desync.com%3A6969"],"infoHash":"3c6cb738815f24b519a30972630a69f5becd14ea","infoHashBuffer":{"type":"Buffer","data":[60,108,183,56,129,95,36,181,25,163,9,114,99,10,105,245,190,205,20,234]},"announce":[],"urlList":[]}}